<svg xmlns="http://www.w3.org/2000/svg" viewBox="-13.331 -12.926 215.512 41.662" data-laser-svg="true"><path id="laser-stroke-1" d="M 0.000 15.405 L 7.500 0.405 L 15.000 15.405" fill="none" stroke="#00ff66" stroke-width="0.862048" stroke-linecap="round" stroke-linejoin="round"/><path id="laser-stroke-2" d="M 3.300 9.105 L 11.700 9.105" fill="none" stroke="#00ff66" stroke-width="0.862048" stroke-linecap="round" stroke-linejoin="round"/><path id="laser-stroke-3" d="M 16.500 0.405 L 16.500 15.405" fill="none" stroke="#00ff66" stroke-width="0.862048" stroke-linecap="round" stroke-linejoin="round"/><path id="laser-stroke-4" d="M 16.500 0.405 L 25.800 0.405 L 29.400 2.805 L 25.800 7.605 L 16.500 7.605" fill="none" stroke="#00ff66" stroke-width="0.862048" stroke-linecap="round" stroke-linejoin="round"/><path id="laser-stroke-5" d="M 16.500 7.605 L 26.400 7.605 L 30.000 10.305 L 26.400 15.405 L 16.500 15.405" fill="none" stroke="#00ff66" stroke-width="0.862048" stroke-linecap="round" stroke-linejoin="round"/><path id="laser-stroke-6" d="M 36.750 0.405 L 44.250 0.405 L 48.000 4.155 L 48.000 11.655 L 44.250 15.405 L 36.750 15.405 L 33.000 11.655 L 33.000 4.155 L 36.750 0.405" fill="none" stroke="#00ff66" stroke-width="0.862048" stroke-linecap="round" stroke-linejoin="round"/><path id="laser-stroke-7" d="M 49.500 0.405 L 49.500 15.405" fill="none" stroke="#00ff66" stroke-width="0.862048" stroke-linecap="round" stroke-linejoin="round"/><path id="laser-stroke-8" d="M 49.500 0.405 L 58.200 0.405 L 63.000 4.155 L 63.000 11.655 L 58.200 15.405 L 49.500 15.405" fill="none" stroke="#00ff66" stroke-width="0.862048" stroke-linecap="round" stroke-linejoin="round"/><path id="laser-stroke-9" d="M 79.500 0.405 L 66.000 0.405 L 66.000 15.405 L 79.500 15.405" fill="none" stroke="#00ff66" stroke-width="0.862048" stroke-linecap="round" stroke-linejoin="round"/><path id="laser-stroke-10" d="M 66.000 7.905 L 76.200 7.905" fill="none" stroke="#00ff66" stroke-width="0.862048" stroke-linecap="round" stroke-linejoin="round"/><path id="laser-stroke-11" d="M 82.500 15.405 L 82.500 0.405 L 97.500 15.405 L 97.500 0.405" fill="none" stroke="#00ff66" stroke-width="0.862048" stroke-linecap="round" stroke-linejoin="round"/><path id="laser-stroke-12" d="M 123.000 3.105 L 119.550 0.405 L 112.050 0.405 L 108.750 3.705 L 108.750 12.105 L 112.050 15.405 L 119.550 15.405 L 123.000 12.705 L 123.000 9.105 L 117.450 9.105" fill="none" stroke="#00ff66" stroke-width="0.862048" stroke-linecap="round" stroke-linejoin="round"/><path id="laser-stroke-13" d="M 125.250 15.405 L 132.750 0.405 L 140.250 15.405" fill="none" stroke="#00ff66" stroke-width="0.862048" stroke-linecap="round" stroke-linejoin="round"/><path id="laser-stroke-14" d="M 128.550 9.105 L 136.950 9.105" fill="none" stroke="#00ff66" stroke-width="0.862048" stroke-linecap="round" stroke-linejoin="round"/><path id="laser-stroke-15" d="M 141.750 15.405 L 141.750 0.405 L 149.250 9.105 L 156.750 0.405 L 156.750 15.405" fill="none" stroke="#00ff66" stroke-width="0.862048" stroke-linecap="round" stroke-linejoin="round"/><path id="laser-stroke-16" d="M 171.750 0.405 L 158.250 0.405 L 158.250 15.405 L 171.750 15.405" fill="none" stroke="#00ff66" stroke-width="0.862048" stroke-linecap="round" stroke-linejoin="round"/><path id="laser-stroke-17" d="M 158.250 7.905 L 168.450 7.905" fill="none" stroke="#00ff66" stroke-width="0.862048" stroke-linecap="round" stroke-linejoin="round"/><path id="laser-stroke-18" d="M 188.550 2.205 L 185.250 0.405 L 178.350 0.405 L 175.350 3.405 L 177.450 7.455 L 185.550 8.655 L 188.850 12.105 L 186.150 15.405 L 178.350 15.405 L 175.350 13.605" fill="none" stroke="#00ff66" stroke-width="0.862048" stroke-linecap="round" stroke-linejoin="round"/></svg>