<svg xmlns="http://www.w3.org/2000/svg" viewBox="-226.560 -219.560 453.120 439.120" data-laser-svg="true"><path id="laser-stroke-1" d="M -52.500 -191.500 L -41.500 -193.500 L -32.500 -189.500" fill="none" stroke="#00ff66" stroke-width="1.81248" stroke-linecap="round" stroke-linejoin="round"/><path id="laser-stroke-2" d="M -54.500 -190.500 L -60.500 -184.500" fill="none" stroke="#00ff66" stroke-width="1.81248" stroke-linecap="round" stroke-linejoin="round"/><path id="laser-stroke-3" d="M -30.500 -187.500 L -27.500 -186.500 L -28.500 -175.500" fill="none" stroke="#00ff66" stroke-width="1.81248" stroke-linecap="round" stroke-linejoin="round"/><path id="laser-stroke-4" d="M -61.500 -183.500 L -62.500 -174.500 L -67.500 -166.500" fill="none" stroke="#00ff66" stroke-width="1.81248" stroke-linecap="round" stroke-linejoin="round"/><path id="laser-stroke-5" d="M -29.500 -173.500 L -28.500 -165.500" fill="none" stroke="#00ff66" stroke-width="1.81248" stroke-linecap="round" stroke-linejoin="round"/><path id="laser-stroke-6" d="M -68.500 -164.500 L -73.500 -158.500" fill="none" stroke="#00ff66" stroke-width="1.81248" stroke-linecap="round" stroke-linejoin="round"/><path id="laser-stroke-7" d="M -30.500 -162.500 L -32.500 -154.500 L -34.500 -152.500 L -41.500 -152.500 L -43.500 -149.500" fill="none" stroke="#00ff66" stroke-width="1.81248" stroke-linecap="round" stroke-linejoin="round"/><path id="laser-stroke-8" d="M -78.500 -153.500 L -103.500 -120.500 L -108.500 -112.500 L -108.500 -108.500" fill="none" stroke="#00ff66" stroke-width="1.81248" stroke-linecap="round" stroke-linejoin="round"/><path id="laser-stroke-9" d="M -35.500 -122.500 L -33.500 -105.500 L -26.500 -102.500" fill="none" stroke="#00ff66" stroke-width="1.81248" stroke-linecap="round" stroke-linejoin="round"/><path id="laser-stroke-10" d="M 146.500 -107.500 L 141.500 -108.500 L 133.500 -106.500" fill="none" stroke="#00ff66" stroke-width="1.81248" stroke-linecap="round" stroke-linejoin="round"/><path id="laser-stroke-11" d="M 151.500 -105.500 L 158.500 -102.500 L 180.500 -103.500 L 188.500 -101.500 L 195.500 -96.500 L 200.500 -85.500" fill="none" stroke="#00ff66" stroke-width="1.81248" stroke-linecap="round" stroke-linejoin="round"/><path id="laser-stroke-12" d="M 129.500 -104.500 L 122.500 -106.500 L 119.500 -104.500 L 122.500 -94.500" fill="none" stroke="#00ff66" stroke-width="1.81248" stroke-linecap="round" stroke-linejoin="round"/><path id="laser-stroke-13" d="M -24.500 -101.500 L -13.500 -99.500 L -5.500 -101.500 L -1.500 -97.500" fill="none" stroke="#00ff66" stroke-width="1.81248" stroke-linecap="round" stroke-linejoin="round"/><path id="laser-stroke-14" d="M -96.500 -98.500 L -96.500 -92.500 L -98.500 -89.500" fill="none" stroke="#00ff66" stroke-width="1.81248" stroke-linecap="round" stroke-linejoin="round"/><path id="laser-stroke-15" d="M -2.500 -88.500 L -7.500 -86.500 L -16.500 -87.500 L -20.500 -81.500" fill="none" stroke="#00ff66" stroke-width="1.81248" stroke-linecap="round" stroke-linejoin="round"/><path id="laser-stroke-16" d="M 119.500 -88.500 L 110.500 -69.500" fill="none" stroke="#00ff66" stroke-width="1.81248" stroke-linecap="round" stroke-linejoin="round"/><path id="laser-stroke-17" d="M -99.500 -87.500 L -100.500 -84.500 L -94.500 -80.500 L -91.500 -74.500" fill="none" stroke="#00ff66" stroke-width="1.81248" stroke-linecap="round" stroke-linejoin="round"/><path id="laser-stroke-18" d="M -37.500 -83.500 L -20.500 -81.500" fill="none" stroke="#00ff66" stroke-width="1.81248" stroke-linecap="round" stroke-linejoin="round"/><path id="laser-stroke-19" d="M 3.500 -83.500 L 23.500 -65.500" fill="none" stroke="#00ff66" stroke-width="1.81248" stroke-linecap="round" stroke-linejoin="round"/><path id="laser-stroke-20" d="M -18.500 -79.500 L -13.500 -77.500 L -7.500 -69.500" fill="none" stroke="#00ff66" stroke-width="1.81248" stroke-linecap="round" stroke-linejoin="round"/><path id="laser-stroke-21" d="M 195.500 -76.500 L 192.500 -71.500 L 189.500 -71.500" fill="none" stroke="#00ff66" stroke-width="1.81248" stroke-linecap="round" stroke-linejoin="round"/><path id="laser-stroke-22" d="M 182.500 -75.500 L 177.500 -75.500 L 164.500 -69.500" fill="none" stroke="#00ff66" stroke-width="1.81248" stroke-linecap="round" stroke-linejoin="round"/><path id="laser-stroke-23" d="M 162.500 -68.500 L 156.500 -66.500 L 147.500 -58.500 L 129.500 -19.500 L 115.500 0.500 L 105.500 10.500 L 93.500 17.500" fill="none" stroke="#00ff66" stroke-width="1.81248" stroke-linecap="round" stroke-linejoin="round"/><path id="laser-stroke-24" d="M -94.500 -67.500 L -98.500 -66.500 L -105.500 -60.500 L -109.500 -53.500 L -110.500 -47.500" fill="none" stroke="#00ff66" stroke-width="1.81248" stroke-linecap="round" stroke-linejoin="round"/><path id="laser-stroke-25" d="M 109.500 -67.500 L 102.500 -53.500" fill="none" stroke="#00ff66" stroke-width="1.81248" stroke-linecap="round" stroke-linejoin="round"/><path id="laser-stroke-26" d="M 25.500 -64.500 L 36.500 -57.500" fill="none" stroke="#00ff66" stroke-width="1.81248" stroke-linecap="round" stroke-linejoin="round"/><path id="laser-stroke-27" d="M -1.500 -61.500 L 9.500 -55.500 L 24.500 -39.500 L 32.500 -34.500" fill="none" stroke="#00ff66" stroke-width="1.81248" stroke-linecap="round" stroke-linejoin="round"/><path id="laser-stroke-28" d="M 38.500 -56.500 L 50.500 -51.500" fill="none" stroke="#00ff66" stroke-width="1.81248" stroke-linecap="round" stroke-linejoin="round"/><path id="laser-stroke-29" d="M 96.500 -48.500 L 88.500 -46.500 L 63.500 -47.500" fill="none" stroke="#00ff66" stroke-width="1.81248" stroke-linecap="round" stroke-linejoin="round"/><path id="laser-stroke-30" d="M 97.500 -47.500 L 97.500 -44.500 L 92.500 -38.500" fill="none" stroke="#00ff66" stroke-width="1.81248" stroke-linecap="round" stroke-linejoin="round"/><path id="laser-stroke-31" d="M -112.500 -45.500 L -124.500 -39.500 L -134.500 -31.500" fill="none" stroke="#00ff66" stroke-width="1.81248" stroke-linecap="round" stroke-linejoin="round"/><path id="laser-stroke-32" d="M 91.500 -36.500 L 81.500 -27.500 L 72.500 -23.500" fill="none" stroke="#00ff66" stroke-width="1.81248" stroke-linecap="round" stroke-linejoin="round"/><path id="laser-stroke-33" d="M 34.500 -33.500 L 41.500 -28.500" fill="none" stroke="#00ff66" stroke-width="1.81248" stroke-linecap="round" stroke-linejoin="round"/><path id="laser-stroke-34" d="M -135.500 -30.500 L -143.500 -22.500" fill="none" stroke="#00ff66" stroke-width="1.81248" stroke-linecap="round" stroke-linejoin="round"/><path id="laser-stroke-35" d="M 55.500 -21.500 L 66.500 -21.500" fill="none" stroke="#00ff66" stroke-width="1.81248" stroke-linecap="round" stroke-linejoin="round"/><path id="laser-stroke-36" d="M -146.500 -20.500 L -153.500 -17.500 L -157.500 -13.500" fill="none" stroke="#00ff66" stroke-width="1.81248" stroke-linecap="round" stroke-linejoin="round"/><path id="laser-stroke-37" d="M -159.500 -12.500 L -167.500 2.500" fill="none" stroke="#00ff66" stroke-width="1.81248" stroke-linecap="round" stroke-linejoin="round"/><path id="laser-stroke-38" d="M -158.500 0.500 L -161.500 11.500 L -162.500 27.500" fill="none" stroke="#00ff66" stroke-width="1.81248" stroke-linecap="round" stroke-linejoin="round"/><path id="laser-stroke-39" d="M -168.500 4.500 L -170.500 23.500 L -173.500 31.500 L -180.500 39.500 L -193.500 49.500 L -195.500 54.500" fill="none" stroke="#00ff66" stroke-width="1.81248" stroke-linecap="round" stroke-linejoin="round"/><path id="laser-stroke-40" d="M 86.500 20.500 L 58.500 23.500" fill="none" stroke="#00ff66" stroke-width="1.81248" stroke-linecap="round" stroke-linejoin="round"/><path id="laser-stroke-41" d="M -162.500 28.500 L -162.500 51.500" fill="none" stroke="#00ff66" stroke-width="1.81248" stroke-linecap="round" stroke-linejoin="round"/><path id="laser-stroke-42" d="M 55.500 30.500 L 53.500 36.500 L 45.500 46.500 L 45.500 50.500" fill="none" stroke="#00ff66" stroke-width="1.81248" stroke-linecap="round" stroke-linejoin="round"/><path id="laser-stroke-43" d="M -166.500 33.500 L -173.500 46.500" fill="none" stroke="#00ff66" stroke-width="1.81248" stroke-linecap="round" stroke-linejoin="round"/><path id="laser-stroke-44" d="M -86.500 39.500 L -89.500 39.500 L -91.500 42.500 L -93.500 60.500" fill="none" stroke="#00ff66" stroke-width="1.81248" stroke-linecap="round" stroke-linejoin="round"/><path id="laser-stroke-45" d="M -71.500 43.500 L -61.500 48.500" fill="none" stroke="#00ff66" stroke-width="1.81248" stroke-linecap="round" stroke-linejoin="round"/><path id="laser-stroke-46" d="M -174.500 48.500 L -176.500 52.500 L -188.500 63.500" fill="none" stroke="#00ff66" stroke-width="1.81248" stroke-linecap="round" stroke-linejoin="round"/><path id="laser-stroke-47" d="M -44.500 55.500 L -30.500 57.500 L -14.500 56.500" fill="none" stroke="#00ff66" stroke-width="1.81248" stroke-linecap="round" stroke-linejoin="round"/><path id="laser-stroke-48" d="M -12.500 55.500 L -6.500 55.500 L -10.500 85.500" fill="none" stroke="#00ff66" stroke-width="1.81248" stroke-linecap="round" stroke-linejoin="round"/><path id="laser-stroke-49" d="M -164.500 57.500 L -167.500 67.500 L -178.500 85.500" fill="none" stroke="#00ff66" stroke-width="1.81248" stroke-linecap="round" stroke-linejoin="round"/><path id="laser-stroke-50" d="M -129.500 60.500 L -131.500 58.500 L -137.500 63.500" fill="none" stroke="#00ff66" stroke-width="1.81248" stroke-linecap="round" stroke-linejoin="round"/><path id="laser-stroke-51" d="M -94.500 62.500 L -103.500 79.500 L -104.500 88.500" fill="none" stroke="#00ff66" stroke-width="1.81248" stroke-linecap="round" stroke-linejoin="round"/><path id="laser-stroke-52" d="M -138.500 65.500 L -150.500 78.500" fill="none" stroke="#00ff66" stroke-width="1.81248" stroke-linecap="round" stroke-linejoin="round"/><path id="laser-stroke-53" d="M -126.500 68.500 L -124.500 80.500 L -125.500 99.500" fill="none" stroke="#00ff66" stroke-width="1.81248" stroke-linecap="round" stroke-linejoin="round"/><path id="laser-stroke-54" d="M 18.500 68.500 L 2.500 98.500" fill="none" stroke="#00ff66" stroke-width="1.81248" stroke-linecap="round" stroke-linejoin="round"/><path id="laser-stroke-55" d="M 23.500 70.500 L 29.500 77.500" fill="none" stroke="#00ff66" stroke-width="1.81248" stroke-linecap="round" stroke-linejoin="round"/><path id="laser-stroke-56" d="M 30.500 79.500 L 49.500 105.500 L 52.500 119.500 L 60.500 128.500" fill="none" stroke="#00ff66" stroke-width="1.81248" stroke-linecap="round" stroke-linejoin="round"/><path id="laser-stroke-57" d="M -151.500 80.500 L -175.500 110.500 L -180.500 120.500 L -184.500 137.500" fill="none" stroke="#00ff66" stroke-width="1.81248" stroke-linecap="round" stroke-linejoin="round"/><path id="laser-stroke-58" d="M -179.500 87.500 L -195.500 101.500 L -198.500 106.500 L -196.500 115.500 L -197.500 162.500" fill="none" stroke="#00ff66" stroke-width="1.81248" stroke-linecap="round" stroke-linejoin="round"/><path id="laser-stroke-59" d="M 59.500 91.500 L 63.500 99.500" fill="none" stroke="#00ff66" stroke-width="1.81248" stroke-linecap="round" stroke-linejoin="round"/><path id="laser-stroke-60" d="M -106.500 95.500 L -108.500 105.500 L -106.500 124.500" fill="none" stroke="#00ff66" stroke-width="1.81248" stroke-linecap="round" stroke-linejoin="round"/><path id="laser-stroke-61" d="M -14.500 99.500 L -17.500 111.500 L -22.500 120.500 L -20.500 136.500 L -23.500 150.500" fill="none" stroke="#00ff66" stroke-width="1.81248" stroke-linecap="round" stroke-linejoin="round"/><path id="laser-stroke-62" d="M 1.500 100.500 L -1.500 108.500 L -1.500 122.500 L -8.500 133.500" fill="none" stroke="#00ff66" stroke-width="1.81248" stroke-linecap="round" stroke-linejoin="round"/><path id="laser-stroke-63" d="M 64.500 101.500 L 74.500 113.500" fill="none" stroke="#00ff66" stroke-width="1.81248" stroke-linecap="round" stroke-linejoin="round"/><path id="laser-stroke-64" d="M -129.500 110.500 L -130.500 120.500 L -120.500 132.500" fill="none" stroke="#00ff66" stroke-width="1.81248" stroke-linecap="round" stroke-linejoin="round"/><path id="laser-stroke-65" d="M 75.500 115.500 L 75.500 128.500" fill="none" stroke="#00ff66" stroke-width="1.81248" stroke-linecap="round" stroke-linejoin="round"/><path id="laser-stroke-66" d="M -103.500 133.500 L -91.500 161.500 L -81.500 172.500" fill="none" stroke="#00ff66" stroke-width="1.81248" stroke-linecap="round" stroke-linejoin="round"/><path id="laser-stroke-67" d="M 77.500 133.500 L 81.500 145.500" fill="none" stroke="#00ff66" stroke-width="1.81248" stroke-linecap="round" stroke-linejoin="round"/><path id="laser-stroke-68" d="M -119.500 134.500 L -112.500 142.500" fill="none" stroke="#00ff66" stroke-width="1.81248" stroke-linecap="round" stroke-linejoin="round"/><path id="laser-stroke-69" d="M -11.500 141.500 L -13.500 150.500" fill="none" stroke="#00ff66" stroke-width="1.81248" stroke-linecap="round" stroke-linejoin="round"/><path id="laser-stroke-70" d="M 69.500 141.500 L 75.500 153.500" fill="none" stroke="#00ff66" stroke-width="1.81248" stroke-linecap="round" stroke-linejoin="round"/><path id="laser-stroke-71" d="M -186.500 145.500 L -188.500 159.500 L -187.500 168.500" fill="none" stroke="#00ff66" stroke-width="1.81248" stroke-linecap="round" stroke-linejoin="round"/><path id="laser-stroke-72" d="M -109.500 147.500 L -104.500 155.500" fill="none" stroke="#00ff66" stroke-width="1.81248" stroke-linecap="round" stroke-linejoin="round"/><path id="laser-stroke-73" d="M 82.500 147.500 L 88.500 160.500 L 95.500 169.500" fill="none" stroke="#00ff66" stroke-width="1.81248" stroke-linecap="round" stroke-linejoin="round"/><path id="laser-stroke-74" d="M -24.500 152.500 L -26.500 160.500" fill="none" stroke="#00ff66" stroke-width="1.81248" stroke-linecap="round" stroke-linejoin="round"/><path id="laser-stroke-75" d="M -14.500 152.500 L -16.500 168.500" fill="none" stroke="#00ff66" stroke-width="1.81248" stroke-linecap="round" stroke-linejoin="round"/><path id="laser-stroke-76" d="M 76.500 155.500 L 80.500 167.500" fill="none" stroke="#00ff66" stroke-width="1.81248" stroke-linecap="round" stroke-linejoin="round"/><path id="laser-stroke-77" d="M -27.500 162.500 L -32.500 174.500 L -30.500 177.500" fill="none" stroke="#00ff66" stroke-width="1.81248" stroke-linecap="round" stroke-linejoin="round"/><path id="laser-stroke-78" d="M 81.500 169.500 L 82.500 175.500 L 87.500 179.500 L 85.500 190.500 L 89.500 193.500 L 117.500 193.500 L 117.500 187.500 L 112.500 182.500 L 106.500 180.500" fill="none" stroke="#00ff66" stroke-width="1.81248" stroke-linecap="round" stroke-linejoin="round"/><path id="laser-stroke-79" d="M -15.500 170.500 L -13.500 178.500 L -10.500 181.500 L -3.500 183.500 L 2.500 189.500 L 2.500 192.500" fill="none" stroke="#00ff66" stroke-width="1.81248" stroke-linecap="round" stroke-linejoin="round"/><path id="laser-stroke-80" d="M 97.500 170.500 L 100.500 177.500 L 104.500 179.500" fill="none" stroke="#00ff66" stroke-width="1.81248" stroke-linecap="round" stroke-linejoin="round"/><path id="laser-stroke-81" d="M -200.500 172.500 L -200.500 176.500 L -196.500 181.500 L -199.500 189.500 L -198.500 191.500" fill="none" stroke="#00ff66" stroke-width="1.81248" stroke-linecap="round" stroke-linejoin="round"/><path id="laser-stroke-82" d="M -185.500 172.500 L -182.500 179.500" fill="none" stroke="#00ff66" stroke-width="1.81248" stroke-linecap="round" stroke-linejoin="round"/><path id="laser-stroke-83" d="M -77.500 177.500 L -69.500 180.500 L -63.500 186.500 L -61.500 191.500 L -90.500 191.500" fill="none" stroke="#00ff66" stroke-width="1.81248" stroke-linecap="round" stroke-linejoin="round"/><path id="laser-stroke-84" d="M -29.500 179.500 L -28.500 183.500 L -31.500 187.500 L -31.500 191.500 L -29.500 193.500 L 1.500 193.500" fill="none" stroke="#00ff66" stroke-width="1.81248" stroke-linecap="round" stroke-linejoin="round"/><path id="laser-stroke-85" d="M -177.500 181.500 L -170.500 187.500 L -169.500 191.500" fill="none" stroke="#00ff66" stroke-width="1.81248" stroke-linecap="round" stroke-linejoin="round"/><path id="laser-stroke-86" d="M -90.500 181.500 L -89.500 184.500 L -91.500 186.500 L -91.500 190.500" fill="none" stroke="#00ff66" stroke-width="1.81248" stroke-linecap="round" stroke-linejoin="round"/><path id="laser-stroke-87" d="M -197.500 192.500 L -170.500 192.500" fill="none" stroke="#00ff66" stroke-width="1.81248" stroke-linecap="round" stroke-linejoin="round"/></svg>